<svg xmlns="http://www.w3.org/2000/svg" width="900" height="220" viewBox="0 0 900 220" role="img" aria-label="Awesome Self-Evolving Agents">
  <defs>
    <linearGradient id="grad" x1="0" y1="0" x2="1" y2="1">
      <stop offset="0%"  stop-color="#d85a30"/>
      <stop offset="55%" stop-color="#c0417a"/>
      <stop offset="100%" stop-color="#1d9e75"/>
    </linearGradient>
    <linearGradient id="rule" x1="0" y1="0" x2="1" y2="0">
      <stop offset="0%" stop-color="#d85a30" stop-opacity="0.9"/>
      <stop offset="100%" stop-color="#1d9e75" stop-opacity="0.1"/>
    </linearGradient>
    <style>
      .title { font: 700 40px -apple-system,"Segoe UI",Roboto,Helvetica,Arial,sans-serif; fill: url(#grad); }
      .sub   { font: 400 15px -apple-system,"Segoe UI",Roboto,Helvetica,Arial,sans-serif; fill: #7d7c75; }
      .kick  { font: 600 12px ui-monospace,"SFMono-Regular",Menlo,monospace; fill: #1d9e75; letter-spacing: 3px; }
      .edge  { stroke: #b8b6ad; stroke-width: 1.3; fill: none; }
      .nd    { fill: #ffffff; stroke: #9a988f; stroke-width: 1.4; }
    </style>
  </defs>

  <!-- evolving-graph motif with a gently pulsing active node -->
  <g transform="translate(58,60)">
    <path class="edge" d="M16 16 H96 M96 16 V64 M96 64 H16 M16 64 V28" />
    <path class="edge" d="M56 16 V64" stroke-dasharray="3 5" />
    <path class="edge" d="M16 16 L56 64 M56 16 L96 64" stroke-opacity="0.5"/>
    <circle class="nd" cx="16" cy="16" r="6.5"/>
    <circle class="nd" cx="96" cy="16" r="6.5"/>
    <circle class="nd" cx="96" cy="64" r="6.5"/>
    <circle class="nd" cx="56" cy="16" r="5.5"/>
    <circle class="nd" cx="56" cy="64" r="5.5"/>
    <circle cx="16" cy="64" r="7" fill="#d85a30">
      <animate attributeName="opacity" values="1;0.35;1" dur="2.4s" repeatCount="indefinite"/>
      <animate attributeName="r" values="7;8.5;7" dur="2.4s" repeatCount="indefinite"/>
    </circle>
  </g>

  <text class="kick"  x="182" y="58">AWESOME · UPDATED 2026-07</text>
  <text class="title" x="180" y="102">Self-Evolving Agents</text>
  <rect x="182" y="116" width="330" height="3" rx="1.5" fill="url(#rule)"/>
  <text class="sub" x="182" y="146">Agents that improve themselves — and the ways that quietly goes wrong.</text>
  <text class="sub" x="182" y="168">Curated papers · a runnable primer · a hard look at failure &amp; safety.</text>
</svg>
